<?xml version="1.0" encoding="UTF-8" standalone="no" ?>
<!DOCTYPE svg PUBLIC "-//W3C//DTD SVG 1.1//EN" "http://www.w3.org/Graphics/SVG/1.1/DTD/svg11.dtd">
<svg xmlns="http://www.w3.org/2000/svg" xmlns:xlink="http://www.w3.org/1999/xlink" version="1.1" width="1024" height="300" viewBox="12.44 165.97 1024 300" xml:space="preserve">
<desc>Created with Fabric.js 5.2.4</desc>
<defs>
</defs>
<g transform="matrix(1 0 0 1 512 256)" id="58c2dc6e-125b-41e2-b62d-7081fd724035"  >
<rect style="stroke: none; stroke-width: 1; stroke-dasharray: none; stroke-linecap: butt; stroke-dashoffset: 0; stroke-linejoin: miter; stroke-miterlimit: 4; fill: rgb(255,255,255); fill-rule: nonzero; opacity: 1; visibility: hidden;" vector-effect="non-scaling-stroke"  x="-512" y="-256" rx="0" ry="0" width="1024" height="512" />
</g>
<g transform="matrix(0 0 0 0 0 0)" id="7b378f5d-83c1-4b65-b4b5-a57842311f13"  >
</g>
<g transform="matrix(13.1 0 0 11.15 524.18 223.29)"  >
<path style="stroke: none; stroke-width: 1; stroke-dasharray: none; stroke-linecap: butt; stroke-dashoffset: 0; stroke-linejoin: miter; stroke-miterlimit: 4; fill: rgb(85,255,202); fill-rule: nonzero; opacity: 1;" vector-effect="non-scaling-stroke"  transform=" translate(-65, 12.21)" d="M 7.25 -21.55 L 24.5 -21.55 L 24.5 -24.42 L 7.25 -24.42 Q 4.88 -24.42 3.19 -22.75 L 3.19 -22.75 Q 1.5 -21.06 1.5 -18.68 L 1.5 -18.68 L 1.5 -17.25 Q 1.5 -14.87 3.19 -13.18 L 3.19 -13.18 Q 4.88 -11.49 7.25 -11.49 L 7.25 -11.49 L 18.75 -11.49 Q 19.94 -11.49 20.78 -10.64 L 20.78 -10.64 Q 21.63 -9.82 21.63 -8.62 L 21.63 -8.62 L 21.63 -5.74 Q 21.63 -4.56 20.78 -3.72 L 20.78 -3.72 Q 19.94 -2.87 18.75 -2.87 L 18.75 -2.87 L 1.5 -2.87 L 1.5 0 L 18.75 0 Q 21.12 0 22.81 -1.69 L 22.81 -1.69 Q 24.5 -3.38 24.5 -5.74 L 24.5 -5.74 L 24.5 -8.62 Q 24.5 -11 22.81 -12.69 L 22.81 -12.69 Q 21.12 -14.36 18.75 -14.36 L 18.75 -14.36 L 7.25 -14.36 Q 6.06 -14.36 5.22 -15.21 L 5.22 -15.21 Q 4.37 -16.05 4.37 -17.25 L 4.37 -17.25 L 4.37 -18.68 Q 4.37 -19.86 5.22 -20.71 L 5.22 -20.71 Q 6.06 -21.55 7.25 -21.55 L 7.25 -21.55 Z M 27.5 -24.42 L 27.5 -21.55 L 50.5 -21.55 L 50.5 -24.42 L 27.5 -24.42 Z M 27.5 -7.19 L 27.5 0 L 30.37 0 L 30.37 -7.19 Q 30.37 -8.97 31.63 -10.23 L 31.63 -10.23 Q 32.91 -11.49 34.69 -11.49 L 34.69 -11.49 L 50.5 -11.49 L 50.5 -14.36 L 34.69 -14.36 Q 31.71 -14.36 29.6 -12.26 L 29.6 -12.26 Q 27.5 -10.16 27.5 -7.19 L 27.5 -7.19 Z M 70.02 -14.36 L 56.37 -14.36 L 56.37 -17.25 Q 56.37 -19.04 57.63 -20.29 L 57.63 -20.29 Q 58.91 -21.55 60.69 -21.55 L 60.69 -21.55 L 73.63 -21.55 L 73.63 -17.97 Q 73.63 -16.48 72.57 -15.43 L 72.57 -15.43 Q 71.5 -14.36 70.02 -14.36 L 70.02 -14.36 Z M 76.5 -17.97 L 76.5 -24.42 L 60.69 -24.42 Q 57.71 -24.42 55.6 -22.32 L 55.6 -22.32 Q 53.5 -20.22 53.5 -17.25 L 53.5 -17.25 L 53.5 0 L 56.37 0 L 56.37 -11.49 L 69.31 -11.49 Q 71.09 -11.49 72.35 -10.23 L 72.35 -10.23 Q 73.63 -8.97 73.63 -7.19 L 73.63 -7.19 L 73.63 0 L 76.5 0 L 76.5 -7.19 Q 76.5 -10.59 73.85 -12.75 L 73.85 -12.75 Q 76.5 -14.7 76.5 -17.97 L 76.5 -17.97 Z M 82.37 -17.25 L 82.37 -14.36 L 96.02 -14.36 Q 97.5 -14.36 98.57 -15.43 L 98.57 -15.43 Q 99.63 -16.48 99.63 -17.97 L 99.63 -17.97 L 99.63 -21.55 L 86.69 -21.55 Q 84.91 -21.55 83.63 -20.29 L 83.63 -20.29 Q 82.37 -19.04 82.37 -17.25 L 82.37 -17.25 Z M 82.37 -11.49 L 82.37 0 L 79.5 0 L 79.5 -17.25 Q 79.5 -20.22 81.6 -22.32 L 81.6 -22.32 Q 83.71 -24.42 86.69 -24.42 L 86.69 -24.42 L 102.5 -24.42 L 102.5 -17.97 Q 102.5 -15.28 100.6 -13.38 L 100.6 -13.38 Q 98.71 -11.49 96.02 -11.49 L 96.02 -11.49 L 82.37 -11.49 Z M 112.69 -21.55 L 128.5 -21.55 L 128.5 -24.42 L 112.69 -24.42 Q 109.71 -24.42 107.6 -22.32 L 107.6 -22.32 Q 105.5 -20.22 105.5 -17.25 L 105.5 -17.25 L 105.5 -7.19 Q 105.5 -4.21 107.6 -2.1 L 107.6 -2.1 Q 109.71 0 112.69 0 L 112.69 0 L 128.5 0 L 128.5 -7.19 Q 128.5 -10.16 126.4 -12.26 L 126.4 -12.26 Q 124.27 -14.36 121.31 -14.36 L 121.31 -14.36 L 114.12 -14.36 L 114.12 -11.49 L 121.31 -11.49 Q 123.09 -11.49 124.35 -10.23 L 124.35 -10.23 Q 125.63 -8.97 125.63 -7.19 L 125.63 -7.19 L 125.63 -2.87 L 112.69 -2.87 Q 110.91 -2.87 109.63 -4.13 L 109.63 -4.13 Q 108.37 -5.41 108.37 -7.19 L 108.37 -7.19 L 108.37 -17.25 Q 108.37 -19.04 109.63 -20.29 L 109.63 -20.29 Q 110.91 -21.55 112.69 -21.55 L 112.69 -21.55 Z" stroke-linecap="round" />
</g>
<g transform="matrix(12.98 0 0 11.05 525.28 468.36)"  >
<path style="stroke: none; stroke-width: 1; stroke-dasharray: none; stroke-linecap: butt; stroke-dashoffset: 0; stroke-linejoin: miter; stroke-miterlimit: 4; fill: rgb(85,255,202); fill-rule: nonzero; opacity: 1;" vector-effect="non-scaling-stroke"  transform=" translate(-65, 6.79)" d="M 4.83 -11.97 L 13.61 -11.97 L 13.61 -13.57 L 4.83 -13.57 Q 3.17 -13.57 2 -12.4 L 2 -12.4 Q 0.83 -11.23 0.83 -9.58 L 0.83 -9.58 L 0.83 -3.99 Q 0.83 -2.34 2 -1.17 L 2 -1.17 Q 3.17 0 4.83 0 L 4.83 0 L 13.61 0 L 13.61 -3.99 Q 13.61 -5.64 12.44 -6.81 L 12.44 -6.81 Q 11.26 -7.98 9.62 -7.98 L 9.62 -7.98 L 5.62 -7.98 L 5.62 -6.38 L 9.62 -6.38 Q 10.61 -6.38 11.31 -5.68 L 11.31 -5.68 Q 12.01 -4.99 12.01 -3.99 L 12.01 -3.99 L 12.01 -1.6 L 4.83 -1.6 Q 3.84 -1.6 3.13 -2.29 L 3.13 -2.29 Q 2.43 -3 2.43 -3.99 L 2.43 -3.99 L 2.43 -9.58 Q 2.43 -10.58 3.13 -11.27 L 3.13 -11.27 Q 3.84 -11.97 4.83 -11.97 L 4.83 -11.97 Z M 15.28 -1.6 L 15.28 0 L 28.05 0 L 28.05 -1.6 L 15.28 -1.6 Z M 15.28 -7.98 L 15.28 -6.38 L 28.05 -6.38 L 28.05 -7.98 L 15.28 -7.98 Z M 15.28 -13.57 L 15.28 -11.97 L 28.05 -11.97 L 28.05 -13.57 L 15.28 -13.57 Z M 42.5 -13.57 L 40.9 -13.57 L 40.9 -2.22 L 31.56 -13.57 L 29.72 -13.57 L 29.72 0 L 31.32 0 L 31.32 -11.35 L 40.66 0 L 42.5 0 L 42.5 -13.57 Z M 44.17 -1.6 L 44.17 0 L 56.94 0 L 56.94 -1.6 L 44.17 -1.6 Z M 44.17 -7.98 L 44.17 -6.38 L 56.94 -6.38 L 56.94 -7.98 L 44.17 -7.98 Z M 44.17 -13.57 L 44.17 -11.97 L 56.94 -11.97 L 56.94 -13.57 L 44.17 -13.57 Z M 67.79 -7.98 L 60.21 -7.98 L 60.21 -9.58 Q 60.21 -10.58 60.91 -11.27 L 60.91 -11.27 Q 61.62 -11.97 62.61 -11.97 L 62.61 -11.97 L 69.79 -11.97 L 69.79 -9.98 Q 69.79 -9.16 69.21 -8.57 L 69.21 -8.57 Q 68.61 -7.98 67.79 -7.98 L 67.79 -7.98 Z M 71.39 -9.98 L 71.39 -13.57 L 62.61 -13.57 Q 60.95 -13.57 59.78 -12.4 L 59.78 -12.4 Q 58.61 -11.23 58.61 -9.58 L 58.61 -9.58 L 58.61 0 L 60.21 0 L 60.21 -6.38 L 67.39 -6.38 Q 68.38 -6.38 69.08 -5.68 L 69.08 -5.68 Q 69.79 -4.99 69.79 -3.99 L 69.79 -3.99 L 69.79 0 L 71.39 0 L 71.39 -3.99 Q 71.39 -5.88 69.92 -7.08 L 69.92 -7.08 Q 71.39 -8.17 71.39 -9.98 L 71.39 -9.98 Z M 81.84 -13.57 L 77.05 -13.57 Q 75.39 -13.57 74.22 -12.4 L 74.22 -12.4 Q 73.06 -11.23 73.06 -9.58 L 73.06 -9.58 L 73.06 0 L 74.65 0 L 74.65 -9.58 Q 74.65 -10.58 75.35 -11.27 L 75.35 -11.27 Q 76.06 -11.97 77.05 -11.97 L 77.05 -11.97 L 81.84 -11.97 Q 82.83 -11.97 83.53 -11.27 L 83.53 -11.27 Q 84.24 -10.58 84.24 -9.58 L 84.24 -9.58 L 84.24 0 L 85.83 0 L 85.83 -9.58 Q 85.83 -11.23 84.66 -12.4 L 84.66 -12.4 Q 83.49 -13.57 81.84 -13.57 L 81.84 -13.57 Z M 100.28 -13.57 L 87.5 -13.57 L 87.5 -11.97 L 93.09 -11.97 L 93.09 0 L 94.69 0 L 94.69 -11.97 L 100.28 -11.97 L 100.28 -13.57 Z M 110.73 -11.97 L 105.94 -11.97 Q 104.95 -11.97 104.24 -11.27 L 104.24 -11.27 Q 103.54 -10.58 103.54 -9.58 L 103.54 -9.58 L 103.54 -3.99 Q 103.54 -3 104.24 -2.29 L 104.24 -2.29 Q 104.95 -1.6 105.94 -1.6 L 105.94 -1.6 L 110.73 -1.6 Q 111.72 -1.6 112.42 -2.29 L 112.42 -2.29 Q 113.13 -3 113.13 -3.99 L 113.13 -3.99 L 113.13 -9.58 Q 113.13 -10.58 112.42 -11.27 L 112.42 -11.27 Q 111.72 -11.97 110.73 -11.97 L 110.73 -11.97 Z M 110.73 0 L 105.94 0 Q 104.28 0 103.11 -1.17 L 103.11 -1.17 Q 101.95 -2.34 101.95 -3.99 L 101.95 -3.99 L 101.95 -9.58 Q 101.95 -11.23 103.11 -12.4 L 103.11 -12.4 Q 104.28 -13.57 105.94 -13.57 L 105.94 -13.57 L 110.73 -13.57 Q 112.37 -13.57 113.55 -12.4 L 113.55 -12.4 Q 114.72 -11.23 114.72 -9.58 L 114.72 -9.58 L 114.72 -3.99 Q 114.72 -2.34 113.55 -1.17 L 113.55 -1.17 Q 112.37 0 110.73 0 L 110.73 0 Z M 125.57 -7.98 L 117.99 -7.98 L 117.99 -9.58 Q 117.99 -10.58 118.68 -11.27 L 118.68 -11.27 Q 119.39 -11.97 120.38 -11.97 L 120.38 -11.97 L 127.57 -11.97 L 127.57 -9.98 Q 127.57 -9.16 126.99 -8.57 L 126.99 -8.57 Q 126.39 -7.98 125.57 -7.98 L 125.57 -7.98 Z M 129.17 -9.98 L 129.17 -13.57 L 120.38 -13.57 Q 118.73 -13.57 117.56 -12.4 L 117.56 -12.4 Q 116.39 -11.23 116.39 -9.58 L 116.39 -9.58 L 116.39 0 L 117.99 0 L 117.99 -6.38 L 125.17 -6.38 Q 126.16 -6.38 126.86 -5.68 L 126.86 -5.68 Q 127.57 -4.99 127.57 -3.99 L 127.57 -3.99 L 127.57 0 L 129.17 0 L 129.17 -3.99 Q 129.17 -5.88 127.7 -7.08 L 127.7 -7.08 Q 129.17 -8.17 129.17 -9.98 L 129.17 -9.98 Z" stroke-linecap="round" />
</g>
</svg>